<mxfile host="65bd71144e">
    <diagram id="HbK-ZSRsort6HVWAc9ED" name="Page-1">
        <mxGraphModel dx="2585" dy="1063" grid="1" gridSize="10" guides="1" tooltips="1" connect="1" arrows="1" fold="1" page="1" pageScale="1" pageWidth="827" pageHeight="1169" math="0" shadow="0">
            <root>
                <mxCell id="0"/>
                <mxCell id="1" parent="0"/>
                <mxCell id="2" value="List of stock prices" style="rounded=0;whiteSpace=wrap;html=1;" parent="1" vertex="1">
                    <mxGeometry x="30" y="20" width="120" height="60" as="geometry"/>
                </mxCell>
                <mxCell id="3" value="Function (is price above x for i)" style="swimlane;" parent="1" vertex="1">
                    <mxGeometry x="-270" y="100" width="230" height="200" as="geometry">
                        <mxRectangle x="150" y="20" width="210" height="23" as="alternateBounds"/>
                    </mxGeometry>
                </mxCell>
                <mxCell id="4" value="- is the stock price above x for i time" style="text;html=1;align=center;verticalAlign=middle;resizable=0;points=[];autosize=1;strokeColor=none;fillColor=none;" parent="3" vertex="1">
                    <mxGeometry x="-6" y="50" width="210" height="20" as="geometry"/>
                </mxCell>
                <mxCell id="6" value="- if the price drops below x before i time&lt;br&gt;then reset the i counter&amp;nbsp;" style="text;html=1;align=center;verticalAlign=middle;resizable=0;points=[];autosize=1;strokeColor=none;fillColor=none;" parent="3" vertex="1">
                    <mxGeometry y="145" width="220" height="30" as="geometry"/>
                </mxCell>
                <mxCell id="5" value="- if the price is above x for i append &lt;br&gt;the price to x&amp;nbsp;&amp;nbsp;" style="text;html=1;align=center;verticalAlign=middle;resizable=0;points=[];autosize=1;strokeColor=none;fillColor=none;" parent="3" vertex="1">
                    <mxGeometry x="15" y="85" width="200" height="30" as="geometry"/>
                </mxCell>
                <mxCell id="7" value="Function (end price check)" style="swimlane;" parent="1" vertex="1">
                    <mxGeometry x="-513" y="100" width="200" height="200" as="geometry">
                        <mxRectangle x="150" y="50" width="190" height="23" as="alternateBounds"/>
                    </mxGeometry>
                </mxCell>
                <mxCell id="8" value="- If s &amp;lt; k Return k&amp;nbsp;&amp;nbsp;" style="text;html=1;align=center;verticalAlign=middle;resizable=0;points=[];autosize=1;strokeColor=none;fillColor=none;" parent="7" vertex="1">
                    <mxGeometry x="25" y="50" width="110" height="20" as="geometry"/>
                </mxCell>
                <mxCell id="10" value="Calc the av life of a bond" style="swimlane;" parent="1" vertex="1">
                    <mxGeometry x="530" y="10" width="200" height="200" as="geometry"/>
                </mxCell>
                <mxCell id="11" value="- avarage lifetime of a bond&lt;br&gt;as the bond can if it gets called&amp;nbsp;" style="text;html=1;align=center;verticalAlign=middle;resizable=0;points=[];autosize=1;strokeColor=none;fillColor=none;" parent="10" vertex="1">
                    <mxGeometry x="10" y="40" width="180" height="30" as="geometry"/>
                </mxCell>
            </root>
        </mxGraphModel>
    </diagram>
</mxfile>